<svg width="40" height="40" viewBox="0 0 40 40" fill="none" xmlns="http://www.w3.org/2000/svg">
<rect width="40" height="40" rx="20" fill="#95B541"/>
<path d="M15.3141 26.5H12.394V15.7571H15.3141V26.5ZM13.8541 14.0429C13.3442 14.0429 12.9039 13.8752 12.533 13.54C12.1777 13.1895 12 12.7705 12 12.2829C12 11.7952 12.1777 11.3762 12.533 11.0257C12.9039 10.6752 13.3442 10.5 13.8541 10.5C14.3485 10.5 14.7734 10.6752 15.1287 11.0257C15.4995 11.3762 15.685 11.7952 15.685 12.2829C15.685 12.7705 15.4995 13.1895 15.1287 13.54C14.7734 13.8752 14.3485 14.0429 13.8541 14.0429Z" fill="white"/>
<path d="M17.8258 20.3971C17.8258 18.9495 18.2739 17.7762 19.17 16.8771C20.0816 15.9781 21.3331 15.5286 22.9245 15.5286C24.5159 15.5286 25.7597 15.9781 26.6558 16.8771C27.5519 17.7762 28 18.9495 28 20.3971V26.5H25.0798V20.6257C25.0798 19.8181 24.8944 19.1933 24.5236 18.7514C24.1683 18.2943 23.6352 18.0657 22.9245 18.0657C22.2138 18.0657 21.673 18.2943 21.3022 18.7514C20.9468 19.1933 20.7691 19.8181 20.7691 20.6257V26.5H17.8258V20.3971Z" fill="white"/>
</svg>
