<svg width="24" height="24" viewBox="0 0 24 24" fill="none" xmlns="http://www.w3.org/2000/svg">
<path d="M14 21H10" stroke="#26243B" stroke-width="1.5" stroke-linecap="round" stroke-linejoin="round"/>
<path fill-rule="evenodd" clip-rule="evenodd" d="M17.7143 9.85505V9.81782V9.81782C17.7143 6.60522 15.1554 4 12 4V4C8.84457 4 6.28571 6.60522 6.28571 9.81782V9.81782V9.85505V12.7314C6.28571 13.1084 6.07657 13.4516 5.74629 13.6203L5.17143 13.9124C4.45371 14.2789 4 15.0259 4 15.8428V15.8428C4 17.0342 4.94857 18 6.11886 18H17.8811C19.0514 18 20 17.0342 20 15.8428V15.8428C20 15.0259 19.5463 14.2789 18.8286 13.9136L18.2537 13.6215C17.9234 13.4516 17.7143 13.1084 17.7143 12.7314V9.85505Z" stroke="#26243B" stroke-width="1.5" stroke-linecap="round" stroke-linejoin="round"/>
</svg>
