<svg width="24" height="24" viewBox="0 0 24 24" fill="none" xmlns="http://www.w3.org/2000/svg">
<path fill-rule="evenodd" clip-rule="evenodd" d="M17.5 21L7 21C5.067 21 3.5 19.433 3.5 17.5V17.5C3.5 15.567 5.067 14 7 14L17.5 14C19.433 14 21 15.567 21 17.5V17.5C21 19.433 19.433 21 17.5 21Z" stroke="currentColor" stroke-width="1.5" stroke-linecap="round" stroke-linejoin="round"/>
<path fill-rule="evenodd" clip-rule="evenodd" d="M7 3L17.5 3C19.433 3 21 4.567 21 6.5V6.5C21 8.433 19.433 10 17.5 10L7 10C5.067 10 3.5 8.433 3.5 6.5V6.5C3.5 4.567 5.067 3 7 3Z" stroke="currentColor" stroke-width="1.5" stroke-linecap="round" stroke-linejoin="round"/>
<path d="M7.001 6.74999C7.13894 6.74944 7.25037 6.63727 7.25 6.49933C7.24963 6.36139 7.13761 6.24981 6.99967 6.25C6.86173 6.25018 6.75 6.36205 6.75 6.49999C6.74962 6.56659 6.77598 6.63055 6.82316 6.67754C6.87035 6.72454 6.93441 6.75064 7.001 6.74999" stroke="currentColor" stroke-width="1.5" stroke-linecap="round" stroke-linejoin="round"/>
<path d="M17.501 17.75C17.6389 17.7494 17.7504 17.6373 17.75 17.4993C17.7496 17.3614 17.6376 17.2498 17.4997 17.25C17.3617 17.2502 17.25 17.3621 17.25 17.5C17.2496 17.5666 17.276 17.6305 17.3232 17.6775C17.3703 17.7245 17.4344 17.7506 17.501 17.75" stroke="currentColor" stroke-width="1.5" stroke-linecap="round" stroke-linejoin="round"/>
</svg>
