<svg width="24" height="24" viewBox="0 0 24 24" fill="none" xmlns="http://www.w3.org/2000/svg">
<path d="M21.0037 12C21.0037 16.9726 16.9726 21.0037 12 21.0037" stroke="#26243B" stroke-width="1.5" stroke-linecap="round" stroke-linejoin="round"/>
<path d="M2.99622 12C2.99622 7.02736 7.02733 2.99625 12 2.99625" stroke="#26243B" stroke-width="1.5" stroke-linecap="round" stroke-linejoin="round"/>
<path d="M2.99622 12C2.99636 13.0546 3.18394 14.1009 3.55021 15.0899C3.71772 15.5492 4.18999 15.8228 4.67177 15.7396L5.65837 15.5656C6.45578 15.425 6.99784 14.6771 6.88333 13.8756L6.58639 11.797C6.5289 11.3946 6.31063 11.0327 5.98151 10.7942C5.65239 10.5556 5.24058 10.4608 4.84027 10.5314L3.07895 10.8419" stroke="#26243B" stroke-width="1.5" stroke-linecap="round" stroke-linejoin="round"/>
<path d="M21.0037 12C21.0037 7.02736 16.9726 2.99625 12 2.99625" stroke="#26243B" stroke-width="1.5" stroke-linecap="round" stroke-linejoin="round"/>
<path d="M21.0037 12C21.0036 13.0546 20.816 14.1009 20.4497 15.0899C20.2822 15.5492 19.8099 15.8228 19.3281 15.7396L18.3415 15.5656C17.5441 15.425 17.0021 14.6771 17.1166 13.8756L17.4135 11.797C17.471 11.3946 17.6893 11.0327 18.0184 10.7942C18.3475 10.5556 18.7593 10.4608 19.1596 10.5314L20.921 10.8419" stroke="#26243B" stroke-width="1.5" stroke-linecap="round" stroke-linejoin="round"/>
<path d="M13.4931 12.4912C13.4901 12.4912 13.4874 12.493 13.4862 12.4958C13.4851 12.4986 13.4857 12.5018 13.4878 12.5039C13.49 12.5061 13.4932 12.5067 13.496 12.5056C13.4988 12.5044 13.5006 12.5017 13.5006 12.4987C13.5007 12.4966 13.5 12.4947 13.4985 12.4932C13.4971 12.4918 13.4951 12.4911 13.4931 12.4912" stroke="#26243B" stroke-width="1.5" stroke-linecap="round" stroke-linejoin="round"/>
<path d="M10.5068 12.4942C10.5038 12.4942 10.501 12.496 10.4999 12.4988C10.4987 12.5016 10.4994 12.5048 10.5015 12.507C10.5037 12.5091 10.5069 12.5097 10.5097 12.5086C10.5125 12.5074 10.5143 12.5047 10.5143 12.5017C10.5144 12.4997 10.5137 12.4977 10.5122 12.4962C10.5108 12.4948 10.5088 12.4941 10.5068 12.4942" stroke="#26243B" stroke-width="1.5" stroke-linecap="round" stroke-linejoin="round"/>
</svg>
